<?xml version="1.0" standalone="no"?><!-- Generator: Gravit.io --><svg xmlns="http://www.w3.org/2000/svg" xmlns:xlink="http://www.w3.org/1999/xlink" style="isolation:isolate" viewBox="0 0 50 50" width="50" height="50"><defs><clipPath id="_clipPath_FCKjEmBMQtioPTYhuErNzay0ksLTMFP9"><rect width="50" height="50"/></clipPath></defs><g clip-path="url(#_clipPath_FCKjEmBMQtioPTYhuErNzay0ksLTMFP9)"><clipPath id="_clipPath_KCkUYtACncadmXe4RzWcURfmXITnC8GK"><rect x="0" y="0" width="205" height="300" transform="matrix(1,0,0,1,0,0)" fill="rgb(255,255,255)"/></clipPath><g clip-path="url(#_clipPath_KCkUYtACncadmXe4RzWcURfmXITnC8GK)"><g id="Group"><path d=" M 24.997 38.2 C 16.207 38.2 7.381 36.571 3.205 33.018 C 3.085 33.408 3 33.816 3 34.245 L 3 40.69 C 3 46.407 14.402 49 25 49 C 35.597 49 47 46.403 47 40.69 L 47 34.245 C 47 33.813 46.915 33.408 46.792 33.018 C 42.618 36.558 33.796 38.2 24.997 38.2 Z  M 24.997 25.738 C 16.207 25.738 7.381 24.096 3.208 20.553 C 3.085 20.948 3 21.352 3 21.779 L 3 28.226 C 3 33.936 14.403 36.533 25 36.533 C 29.087 36.533 33.293 36.147 36.919 35.345 C 42.696 34.067 47 31.734 47 28.226 L 47 21.779 C 47 21.352 46.916 20.944 46.792 20.553 C 42.618 24.096 33.796 25.738 24.997 25.738 Z  M 25 1 C 14.403 1 3 3.6 3 9.317 L 3 15.761 C 3 21.472 14.403 24.072 25 24.072 C 35.597 24.072 47 21.472 47 15.761 L 47 9.317 C 47 3.604 35.597 1 25 1 Z  M 25 14.301 C 15.373 14.301 7.571 12.07 7.571 9.315 C 7.571 6.561 15.373 4.328 25 4.328 C 34.624 4.328 42.426 6.561 42.426 9.315 C 42.426 12.072 34.624 14.301 25 14.301 Z " fill="rgb(70,153,212)"/></g></g></g></svg>