<?xml version="1.0" standalone="no"?><!-- Generator: Gravit.io --><svg xmlns="http://www.w3.org/2000/svg" xmlns:xlink="http://www.w3.org/1999/xlink" style="isolation:isolate" viewBox="0 0 499 499" width="499" height="499"><defs><clipPath id="_clipPath_P0lduY2eu9H4Sn6zDXVbnd5xlNNwEkBm"><rect width="499" height="499"/></clipPath></defs><g clip-path="url(#_clipPath_P0lduY2eu9H4Sn6zDXVbnd5xlNNwEkBm)"><g id="Group"><g id="Group"><g id="Group"><path d=" M 0 249.55 C 0 259.048 7.698 266.747 17.197 266.747 L 344.731 266.747 L 280.844 330.534 C 274.145 337.232 274.145 348.13 280.844 354.829 C 284.143 358.128 288.542 359.828 292.941 359.828 C 297.34 359.828 301.74 358.128 305.039 354.829 L 398.12 261.748 C 404.819 255.049 404.819 244.151 398.12 237.452 L 305.039 144.371 C 298.34 137.672 287.442 137.672 280.744 144.371 C 274.045 151.07 274.045 161.968 280.744 168.666 L 344.531 232.453 L 17.197 232.453 C 7.698 232.453 0 240.052 0 249.55 Z " fill="rgb(74,150,209)"/><path d=" M 394.321 494.101 C 451.009 494.101 497 448.01 497 391.322 L 497 107.678 C 497 50.99 450.909 4.899 394.321 4.899 L 110.677 4.899 C 53.989 4.899 7.998 50.99 7.998 107.678 L 7.998 165.967 C 7.998 175.465 15.696 183.063 25.095 183.063 C 34.593 183.063 42.291 175.365 42.291 165.967 L 42.291 107.678 C 42.291 69.986 72.985 39.192 110.677 39.192 L 394.321 39.192 C 432.013 39.192 462.707 69.886 462.707 107.678 L 462.707 391.322 C 462.707 429.014 432.013 459.808 394.321 459.808 L 110.677 459.808 C 72.985 459.808 42.291 429.114 42.291 391.322 L 42.291 333.733 C 42.291 324.235 34.593 316.537 25.095 316.537 C 15.596 316.537 7.998 324.235 7.998 333.733 L 7.998 391.322 C 7.998 448.01 54.089 494.101 110.677 494.101 L 394.321 494.101 L 394.321 494.101 Z " fill="rgb(74,150,209)"/></g></g></g></g></svg>