<?xml version="1.0" standalone="no"?><!-- Generator: Gravit.io --><svg xmlns="http://www.w3.org/2000/svg" xmlns:xlink="http://www.w3.org/1999/xlink" style="isolation:isolate" viewBox="0 0 205 300" width="205" height="300"><defs><clipPath id="_clipPath_H42pFymRd7SstmgBIc1CeMMl7yngeouA"><rect width="205" height="300"/></clipPath></defs><g clip-path="url(#_clipPath_H42pFymRd7SstmgBIc1CeMMl7yngeouA)"><path d=" M 102.348 231.948 C 62.65 231.948 22.788 221.837 3.927 199.777 C 3.382 202.199 3 204.73 3 207.398 L 3 247.409 C 3 282.9 54.498 299 102.362 299 C 150.223 299 201.722 282.875 201.722 247.409 L 201.722 207.398 C 201.722 204.716 201.341 202.199 200.783 199.777 C 181.934 221.754 142.089 231.948 102.348 231.948 Z  M 102.348 154.579 C 62.65 154.579 22.788 144.387 3.94 122.394 C 3.382 124.844 3.002 127.349 3.002 130.001 L 3.002 170.026 C 3.002 205.478 54.5 221.603 102.364 221.603 C 150.225 221.603 201.724 205.478 201.724 170.026 L 201.724 130.001 C 201.724 127.349 201.343 124.816 200.785 122.394 C 181.934 144.386 142.089 154.579 102.348 154.579 Z  M 102.363 1 C 54.499 1 3.001 17.141 3.001 52.632 L 3.001 92.643 C 3.001 128.095 54.499 144.237 102.363 144.237 C 150.224 144.237 201.723 128.095 201.723 92.643 L 201.723 52.632 C 201.723 17.167 150.224 1 102.363 1 Z  M 102.363 83.58 C 58.881 83.58 23.646 69.726 23.646 52.62 C 23.646 35.527 58.88 21.659 102.363 21.659 C 145.83 21.659 181.064 35.526 181.064 52.62 C 181.064 69.74 145.83 83.58 102.363 83.58 Z " fill="rgb(70,153,212)"/></g></svg>